<svg width="32" height="32" viewBox="0 0 32 32" fill="none" xmlns="http://www.w3.org/2000/svg">
<g clip-path="url(#clip0_2063_543)">
<rect width="32" height="32" rx="4" fill="url(#paint0_linear_2063_543)"/>
<g filter="url(#filter0_f_2063_543)">
<path d="M27.8015 11.992H27.9815H28.1495C28.5815 11.992 28.9535 12.232 29.1215 12.628L31.7735 19.012H31.0055L28.4735 12.904C28.4135 12.76 28.2935 12.688 28.1495 12.688H27.9815H27.8015C27.6575 12.688 27.5375 12.76 27.4775 12.904L24.9455 19.012H24.1895L26.8415 12.628C26.9975 12.232 27.3695 11.992 27.8015 11.992Z" fill="#5A5555" fill-opacity="0.4"/>
<path d="M19.2031 12.688V11.992H23.7031H24.3631H24.4111V12.952C24.4111 13.18 24.3511 13.372 24.2191 13.552L20.4031 19H19.5511L23.6431 13.156C23.6911 13.084 23.7031 13.036 23.7031 12.952V12.688H19.2031ZM22.7071 18.316H22.2751L21.7951 19H24.7471V18.316H22.7071Z" fill="#5A5555" fill-opacity="0.4"/>
<path d="M15.4085 16.312H15.0605V15.616H15.4085H17.5925H17.7245C18.5285 15.616 19.2005 14.956 19.2005 14.152C19.2005 13.348 18.5285 12.688 17.7245 12.688H15.4085H15.0605V11.992H15.4085H17.7245C18.9245 11.992 19.8965 12.964 19.8965 14.152C19.8965 15.196 19.1405 16.072 18.1565 16.276C18.0965 16.288 18.0365 16.288 17.9765 16.3L19.0445 18.136C19.1045 18.244 19.2125 18.304 19.3445 18.304H19.8965V19H19.3445C18.9605 19 18.6245 18.82 18.4325 18.484L17.2805 16.492C17.2205 16.384 17.1125 16.312 16.9805 16.312H15.7685H15.4085Z" fill="#5A5555" fill-opacity="0.4"/>
<path d="M11.9669 18.472C13.6229 18.472 14.9549 17.14 14.9549 15.484C14.9549 13.84 13.6229 12.508 11.9669 12.508C10.3229 12.508 8.99092 13.84 8.99092 15.484C8.99092 17.14 10.3229 18.472 11.9669 18.472ZM11.9669 19.168C9.93892 19.168 8.29492 17.524 8.29492 15.484C8.29492 13.456 9.93892 11.8 11.9669 11.8C14.0069 11.8 15.6509 13.456 15.6509 15.484C15.6509 17.524 14.0069 19.168 11.9669 19.168Z" fill="#5A5555" fill-opacity="0.4"/>
<path d="M4.10156 12.688V11.992H8.84156V12.688H4.10156ZM5.14556 15.148H5.68556H8.14556V15.844H5.68556H5.14556H5.13356C4.95356 15.856 4.80956 16 4.79756 16.168V19H4.10156V18.532V16.192C4.10156 15.616 4.56956 15.148 5.14556 15.148Z" fill="#5A5555" fill-opacity="0.4"/>
</g>
<g filter="url(#filter1_d_2063_543)">
<path d="M26.5012 13.16H26.6512H26.7912C27.1512 13.16 27.4612 13.36 27.6012 13.69L29.8112 19.01H29.1712L27.0612 13.92C27.0112 13.8 26.9112 13.74 26.7912 13.74H26.6512H26.5012C26.3812 13.74 26.2812 13.8 26.2312 13.92L24.1212 19.01H23.4912L25.7012 13.69C25.8312 13.36 26.1412 13.16 26.5012 13.16Z" fill="white"/>
<path d="M18.3359 13.74V13.16H22.0859H22.6359H22.6759V13.96C22.6759 14.15 22.6259 14.31 22.5159 14.46L19.3359 19H18.6259L22.0359 14.13C22.0759 14.07 22.0859 14.03 22.0859 13.96V13.74H18.3359ZM21.2559 18.43H20.8959L20.4959 19H22.9559V18.43H21.2559Z" fill="white"/>
<path d="M14.4238 16.76H14.1338V16.18H14.4238H16.2438H16.3538C17.0238 16.18 17.5838 15.63 17.5838 14.96C17.5838 14.29 17.0238 13.74 16.3538 13.74H14.4238H14.1338V13.16H14.4238H16.3538C17.3538 13.16 18.1638 13.97 18.1638 14.96C18.1638 15.83 17.5338 16.56 16.7138 16.73C16.6638 16.74 16.6138 16.74 16.5638 16.75L17.4538 18.28C17.5038 18.37 17.5938 18.42 17.7038 18.42H18.1638V19H17.7038C17.3838 19 17.1038 18.85 16.9438 18.57L15.9838 16.91C15.9338 16.82 15.8438 16.76 15.7338 16.76H14.7238H14.4238Z" fill="white"/>
<path d="M11.1391 18.56C12.5191 18.56 13.6291 17.45 13.6291 16.07C13.6291 14.7 12.5191 13.59 11.1391 13.59C9.7691 13.59 8.6591 14.7 8.6591 16.07C8.6591 17.45 9.7691 18.56 11.1391 18.56ZM11.1391 19.14C9.4491 19.14 8.0791 17.77 8.0791 16.07C8.0791 14.38 9.4491 13 11.1391 13C12.8391 13 14.2091 14.38 14.2091 16.07C14.2091 17.77 12.8391 19.14 11.1391 19.14Z" fill="white"/>
<path d="M4.16797 13.74V13.16H8.11797V13.74H4.16797ZM5.03797 15.79H5.48797H7.53797V16.37H5.48797H5.03797H5.02797C4.87797 16.38 4.75797 16.5 4.74797 16.64V19H4.16797V18.61V16.66C4.16797 16.18 4.55797 15.79 5.03797 15.79Z" fill="white"/>
</g>
</g>
<defs>
<filter id="filter0_f_2063_543" x="3" y="10.8" width="32" height="9.36804" filterUnits="userSpaceOnUse" color-interpolation-filters="sRGB">
<feFlood flood-opacity="0" result="BackgroundImageFix"/>
<feBlend mode="normal" in="SourceGraphic" in2="BackgroundImageFix" result="shape"/>
<feGaussianBlur stdDeviation="0.5" result="effect1_foregroundBlur_2063_543"/>
</filter>
<filter id="filter1_d_2063_543" x="4" y="13" width="28" height="6.14001" filterUnits="userSpaceOnUse" color-interpolation-filters="sRGB">
<feFlood flood-opacity="0" result="BackgroundImageFix"/>
<feColorMatrix in="SourceAlpha" type="matrix" values="0 0 0 0 0 0 0 0 0 0 0 0 0 0 0 0 0 0 127 0" result="hardAlpha"/>
<feOffset/>
<feColorMatrix type="matrix" values="0 0 0 0 0 0 0 0 0 0 0 0 0 0 0 0 0 0 0.55 0"/>
<feBlend mode="normal" in2="BackgroundImageFix" result="effect1_dropShadow_2063_543"/>
<feBlend mode="normal" in="SourceGraphic" in2="effect1_dropShadow_2063_543" result="shape"/>
</filter>
<linearGradient id="paint0_linear_2063_543" x1="16" y1="0" x2="16" y2="32" gradientUnits="userSpaceOnUse">
<stop stop-color="#CD84F1"/>
<stop offset="1" stop-color="#7158E2"/>
</linearGradient>
<clipPath id="clip0_2063_543">
<rect width="32" height="32" rx="4" fill="white"/>
</clipPath>
</defs>
</svg>
