<svg width="32" height="32" viewBox="0 0 32 32" fill="none" xmlns="http://www.w3.org/2000/svg">
<rect width="32" height="32" rx="4" fill="white"/>
<path d="M16 1C22.6343 1 28 6.28774 28 12.8252C27.9998 19.1668 21.8618 27.6655 18.3652 31.9951V20.2871C18.3652 18.9648 17.293 17.8926 15.9707 17.8926C14.6486 17.8928 13.5771 18.9649 13.5771 20.2871V31.9238C10.0713 27.5728 4.00021 19.1321 4 12.8252C4 6.28774 9.36571 1 16 1ZM16 9.16406C14.0118 9.16406 12.4004 10.7889 12.4004 12.793C12.4004 14.797 14.0118 16.4219 16 16.4219C17.9882 16.4218 19.5996 14.797 19.5996 12.793C19.5996 10.789 17.9882 9.16411 16 9.16406Z" fill="#520C8A"/>
</svg>
